<svg version="1.2" xmlns="http://www.w3.org/2000/svg" viewBox="0 0 489 494" width="489" height="494">
	<title>8095450</title>
	<defs>
		<linearGradient id="g1" x2="1" gradientUnits="userSpaceOnUse" gradientTransform="matrix(-226.172,226.172,-105.172,-105.172,431.691,242)">
			<stop offset="0" stop-color="#008af1"/>
			<stop offset="1" stop-color="#1cecea"/>
		</linearGradient>
		<linearGradient id="g2" x2="1" gradientUnits="userSpaceOnUse" gradientTransform="matrix(-135.705,-135.705,291.834,-291.834,307.123,394.515)">
			<stop offset="0" stop-color="#008af1"/>
			<stop offset="1" stop-color="#1cecea"/>
		</linearGradient>
		<linearGradient id="g3" x2="1" gradientUnits="userSpaceOnUse" gradientTransform="matrix(20.304,20.304,-43.664,43.664,238.502,226.842)">
			<stop offset="0" stop-color="#008af1" stop-opacity="1"/>
			<stop offset=".994" stop-color="#1cecea" stop-opacity="0"/>
		</linearGradient>
		<linearGradient id="g4" x2="1" gradientUnits="userSpaceOnUse" gradientTransform="matrix(124.675,124.675,-240.338,240.338,160.615,81.784)">
			<stop offset="0" stop-color="#ffff00"/>
			<stop offset="1" stop-color="#ff9615"/>
		</linearGradient>
		<linearGradient id="g5" x2="1" gradientUnits="userSpaceOnUse" gradientTransform="matrix(50.123,50.123,-32.152,32.152,349.327,-47.516)">
			<stop offset="0" stop-color="#ffff00"/>
			<stop offset="1" stop-color="#ff9615"/>
		</linearGradient>
		<linearGradient id="g6" x2="1" gradientUnits="userSpaceOnUse" gradientTransform="matrix(50.123,50.123,-32.152,32.152,359.246,-37.597)">
			<stop offset="0" stop-color="#ffff00" stop-opacity="0"/>
			<stop offset="1" stop-color="#ff9615" stop-opacity="1"/>
		</linearGradient>
		<linearGradient id="g7" x2="1" gradientUnits="userSpaceOnUse" gradientTransform="matrix(-85.774,-85.774,271.741,-271.741,286.317,243.512)">
			<stop offset="0" stop-color="#ffff00"/>
			<stop offset="1" stop-color="#ff9615"/>
		</linearGradient>
		<linearGradient id="g8" x2="1" gradientUnits="userSpaceOnUse" gradientTransform="matrix(205.311,-205.311,106.51,106.51,53.562,235.295)">
			<stop offset="0" stop-color="#ffff00"/>
			<stop offset="1" stop-color="#ff9615"/>
		</linearGradient>
		<linearGradient id="g9" x2="1" gradientUnits="userSpaceOnUse" gradientTransform="matrix(54.176,54.176,-104.436,104.436,223.069,144.239)">
			<stop offset="0" stop-color="#ffff00" stop-opacity="0"/>
			<stop offset="1" stop-color="#ff9615" stop-opacity="1"/>
		</linearGradient>
	</defs>
	<style>
		.s0 { fill: url(#g1) } 
		.s1 { mix-blend-mode: multiply;fill: url(#g2) } 
		.s2 { mix-blend-mode: multiply;fill: url(#g3) } 
		.s3 { fill: url(#g4) } 
		.s4 { fill: url(#g5) } 
		.s5 { mix-blend-mode: multiply;fill: url(#g6) } 
		.s6 { mix-blend-mode: multiply;fill: url(#g7) } 
		.s7 { mix-blend-mode: screen;fill: url(#g8) } 
		.s8 { mix-blend-mode: multiply;fill: url(#g9) } 
	</style>
	<g id="BACKGROUND">
	</g>
	<g id="OBJECTS">
		<g id="&lt;Group&gt;">
			<g id="&lt;Group&gt;">
				<path id="&lt;Path&gt;" class="s0" d="m325.9 134.8l26.9 26.8c44 44 44 115.3 0 159.3l-149.4 149.4-79.6-79.6 11.6-11.6 37.4 37.4 4.6-4.6-37.4-37.5 9.4-9.4 25.3 25.3 4.6-4.6-25.3-25.3 9.5-9.5 25.3 25.3 4.6-4.6-25.3-25.3 9.4-9.4 25.3 25.3 4.6-4.7-25.2-25.2 9.4-9.5 25.3 25.3 4.6-4.6-25.3-25.3 9.4-9.4 37.5 37.4 4.6-4.6-37.4-37.4 9.4-9.5 25.3 25.3 4.6-4.6-25.3-25.3 9.5-9.4 25.2 25.2 4.7-4.6-25.3-25.3 9.4-9.4 25.3 25.3 4.6-4.6-25.3-25.3 9.5-9.5 25.3 25.3 4.6-4.6-25.3-25.3 9.4-9.4 37.5 37.4 4.6-4.6-37.5-37.4 0.6-0.6c21.4-21.4-5.8-47.9-5.8-47.9z"/>
				<path id="&lt;Path&gt;" class="s1" d="m325.9 134.8l26.9 26.8c44 44 44 115.3 0 159.3l-149.4 149.4-3.1-3.1 149.4-149.4c42.2-42.2 42.2-110.9 0-153.1l-26.9-26.9z"/>
				<path id="&lt;Path&gt;" class="s2" d="m325.9 134.8l26.9 26.8c44 44 44 115.3 0 159.3l-149.4 149.4-79.6-79.6 11.6-11.6 37.4 37.4 4.6-4.6-37.4-37.5 9.4-9.4 25.3 25.3 4.6-4.6-25.3-25.3 9.5-9.5 25.3 25.3 4.6-4.6-25.3-25.3 9.4-9.4 25.3 25.3 4.6-4.7-25.2-25.2 9.4-9.5 25.3 25.3 4.6-4.6-25.3-25.3 9.4-9.4 37.5 37.4 4.6-4.6-37.4-37.4 9.4-9.5 25.3 25.3 4.6-4.6-25.3-25.3 9.5-9.4 25.2 25.2 4.7-4.6-25.3-25.3 9.4-9.4 25.3 25.3 4.6-4.6-25.3-25.3 9.5-9.5 25.3 25.3 4.6-4.6-25.3-25.3 9.4-9.4 37.5 37.4 4.6-4.6-37.5-37.4 0.6-0.6c21.4-21.4-5.8-47.9-5.8-47.9z"/>
			</g>
			<g id="&lt;Group&gt;">
				<path id="&lt;Path&gt;" class="s3" d="m263.1 34.2l71.2 71.2c2.3 2.3 2.3 6.1 0 8.5l-129.4 129.3c-21.4 21.5 5.8 47.9 5.8 47.9l-50.6 50.7-26.9-26.9c-44-43.9-44-115.3 0-159.2l121.4-121.5c2.4-2.3 6.2-2.3 8.5 0z"/>
				<path id="&lt;Path&gt;" class="s4" d="m351.1 23.3l-9.1 74.6c-0.3 2.1-2.9 3-4.5 1.5l-68.4-68.4c-1.5-1.6-0.6-4.2 1.5-4.5l74.6-9.1c3.4-0.4 6.3 2.5 5.9 6z"/>
				<path id="&lt;Path&gt;" class="s5" d="m351.1 23.3l-9.1 74.6c-0.3 2.1-2.9 3-4.5 1.5l-68.4-68.4c-1.5-1.6-0.6-4.2 1.5-4.5l74.6-9.1c3.4-0.4 6.3 2.5 5.9 6z"/>
				<path id="&lt;Path&gt;" class="s6" d="m312 83.1l22.3 22.3c2.3 2.3 2.3 6.1 0 8.5l-129.4 129.3c-21.4 21.5 5.8 48 5.8 48l-14.5 14.5-8.2-8.2c-3.9-3.9-7.6-8.1-10.7-12.7-9.9-14.7-12.1-28.1-11.4-38.9 0.9-12 8.5-25.3 19.8-36.6z"/>
				<path id="&lt;Path&gt;" class="s7" d="m263.1 34.2l22.3 22.3-119.3 119.3c0 0-31.9 29.1-35.9 57.2-1.9 13.3 0.1 25.6 3.5 35.8 4.5 13.9 12.5 26.3 22.8 36.6l20 20-16.4 16.4-26.9-26.9c-44-44-44-115.3 0-159.2l121.4-121.5c2.4-2.3 6.2-2.3 8.5 0z"/>
				<path id="&lt;Path&gt;" class="s8" d="m263.1 34.2l71.2 71.2c2.3 2.3 2.3 6.1 0 8.5l-129.4 129.3c-21.4 21.5 5.8 47.9 5.8 47.9l-50.6 50.7-26.9-26.9c-44-43.9-44-115.3 0-159.2l121.4-121.5c2.4-2.3 6.2-2.3 8.5 0z"/>
			</g>
		</g>
	</g>
	<g id="TEXTS">
		<g id="&lt;Group&gt;">
			<g id="&lt;Group&gt;">
				<g id="&lt;Group&gt;">
				</g>
			</g>
		</g>
	</g>
</svg>